<?xml version="1.0" standalone="no"?><!DOCTYPE svg PUBLIC "-//W3C//DTD SVG 1.1//EN" "http://www.w3.org/Graphics/SVG/1.1/DTD/svg11.dtd"><svg class="icon" width="64px" height="64.00px" viewBox="0 0 1024 1024" version="1.1" xmlns="http://www.w3.org/2000/svg"><path d="M70.855 983.964L70.855 846.307c0-21.72099999 17.575-39.32999999 39.249-39.33L227.859 806.977c21.67700001 0 39.24899999 17.609 39.249 39.33l0 39.33L443.737 885.637c21.679 0 39.251-17.607 39.251-39.33L482.988 531.664l-215.88 0 0 39.332c0 21.72099999-17.57199999 39.33-39.249 39.33l-117.756 0c-21.67400001 0-39.24899999-17.609-39.249-39.33L70.854 433.34c0-21.723 17.575-39.32999999 39.249-39.33L227.859 394.01c21.67700001 0 39.249 17.607 39.249 39.33l0 39.33 215.88 0L482.988 177.693c0-21.72099999-17.57199999-39.33-39.251-39.33l-176.629 0 0 39.33c0 21.72099999-17.57199999 39.33-39.249 39.33l-117.756 0c-21.67400001 0-39.24899999-17.609-39.249-39.33L70.854 40.036c0-21.72099999 17.575-39.32999999 39.249-39.33L227.859 0.706c21.67700001 0 39.24899999 17.609 39.249 39.33l0 39.33L463.364 79.366c43.355 0 78.502 35.219 78.502 78.663L541.866 472.67 757.743 472.67000001l0-39.33000001c0-21.723 17.575-39.32999999 39.253-39.33L914.748 394.01c21.679 0 39.251 17.607 39.251 39.33l0 137.657c0 21.72099999-17.57199999 39.33-39.251 39.32999999l-117.751 1e-8c-21.679 0-39.253-17.609-39.25299999-39.33l-1e-8-39.332-215.878 0 0 334.309c0 43.441-35.147 78.66-78.502 78.66l-196.255 0 0 39.33c0 21.72099999-17.57199999 39.33-39.24900001 39.33l-117.75599999 0C88.42900001 1023.294 70.855 1005.684 70.855 983.964z" /></svg>