<svg t="1716464715848" class="icon" viewBox="0 0 1024 1024" version="1.1" xmlns="http://www.w3.org/2000/svg" p-id="2538" width="64" height="64"><path d="M464.08 945.99c-107.62 0-195.17-87.55-195.17-195.17 0-34.87 9.31-69.09 26.94-98.98 14.29-24.24 33.71-45.15 56.71-61.19v-401.1c0-61.5 50.03-111.53 111.53-111.53S575.6 128.04 575.6 189.54v401.1c23 16.05 42.42 36.96 56.71 61.2 17.62 29.89 26.93 64.12 26.93 98.98 0.01 107.61-87.54 195.17-195.16 195.17z m0-812.21c-30.75 0-55.76 25.02-55.76 55.76v432.45l-13.92 8.05c-43.01 24.88-69.73 71.16-69.73 120.77 0 76.87 62.54 139.41 139.41 139.41s139.41-62.54 139.41-139.41c0-49.61-26.72-95.89-69.73-120.77l-13.92-8.05V189.54c0-30.75-25.01-55.76-55.76-55.76z" p-id="2539" fill="#409EFF"></path><path d="M464.08 750.81m-78.95 0a78.95 78.95 0 1 0 157.9 0 78.95 78.95 0 1 0-157.9 0Z" p-id="2540" fill="#409EFF"></path><path d="M464.08 857.64c-58.91 0-106.83-47.92-106.83-106.83s47.92-106.83 106.83-106.83 106.83 47.92 106.83 106.83-47.93 106.83-106.83 106.83z m0-157.89c-28.16 0-51.07 22.91-51.07 51.07s22.91 51.07 51.07 51.07 51.07-22.91 51.07-51.07c-0.01-28.16-22.92-51.07-51.07-51.07z" p-id="2541" fill="#409EFF"></path><path d="M464.08 778.7c-15.4 0-27.88-12.48-27.88-27.88V342.98c0-15.4 12.48-27.88 27.88-27.88s27.88 12.48 27.88 27.88v407.83c0 15.4-12.48 27.89-27.88 27.89zM727.21 300.12h-97.59c-15.25 0-27.62-12.37-27.62-27.62s12.37-27.62 27.62-27.62h97.59c15.25 0 27.62 12.37 27.62 27.62s-12.36 27.62-27.62 27.62zM727.21 379.96h-97.59c-15.25 0-27.62-12.37-27.62-27.62s12.37-27.62 27.62-27.62h97.59c15.25 0 27.62 12.37 27.62 27.62s-12.36 27.62-27.62 27.62zM727.21 459.79h-97.59c-15.25 0-27.62-12.37-27.62-27.62s12.37-27.62 27.62-27.62h97.59c15.25 0 27.62 12.37 27.62 27.62s-12.36 27.62-27.62 27.62zM727.21 539.62h-97.59c-15.25 0-27.62-12.37-27.62-27.62 0-15.25 12.37-27.62 27.62-27.62h97.59c15.25 0 27.62 12.37 27.62 27.62 0 15.25-12.36 27.62-27.62 27.62z" p-id="2542" fill="#409EFF"></path></svg>